<svg width="24" height="24" viewBox="0 0 24 24" fill="none" xmlns="http://www.w3.org/2000/svg">
<g id="happy-face">
<path id="Oval" d="M7.30109 14.0012C8.07344 15.7578 9.98814 17 11.9996 17C14.0025 17 15.9135 15.7546 16.6925 14.0055" stroke="#8270E2" stroke-width="2" stroke-linecap="round"/>
<path id="Oval_2" fill-rule="evenodd" clip-rule="evenodd" d="M9 10C9.55228 10 10 9.55228 10 9C10 8.44772 9.55228 8 9 8C8.44772 8 8 8.44772 8 9C8 9.55228 8.44772 10 9 10Z" fill="#8270E2"/>
<path id="Oval_3" fill-rule="evenodd" clip-rule="evenodd" d="M15 10C15.5523 10 16 9.55228 16 9C16 8.44772 15.5523 8 15 8C14.4477 8 14 8.44772 14 9C14 9.55228 14.4477 10 15 10Z" fill="#8270E2"/>
<path id="Oval_4" fill-rule="evenodd" clip-rule="evenodd" d="M12 22C17.5228 22 22 17.5228 22 12C22 6.47715 17.5228 2 12 2C6.47715 2 2 6.47715 2 12C2 17.5228 6.47715 22 12 22Z" stroke="#8270E2" stroke-width="2"/>
</g>
</svg>
