<svg width="12" height="12" viewBox="0 0 12 12" fill="none" xmlns="http://www.w3.org/2000/svg">
<path fill-rule="evenodd" clip-rule="evenodd" d="M7.62513 7.01198C6.56181 8.06994 4.8317 8.06994 3.76837 7.01198C2.70527 5.95403 2.70505 4.23266 3.76837 3.1747C4.8317 2.11674 6.56181 2.11697 7.62513 3.1747C8.68846 4.23266 8.68846 5.95403 7.62513 7.01198M9.20041 1.60738C7.26847 -0.314806 4.12504 -0.314806 2.1931 1.60738C0.261154 3.52957 0.261154 6.65712 2.1931 8.5793C3.79043 10.1686 6.21516 10.4423 8.09943 9.40386L9.62971 10.9262C10.1624 11.4564 11.0265 11.4564 11.5594 10.9262C12.0921 10.3962 12.0921 9.53641 11.5594 9.00643L10.0292 7.48389C11.0729 5.60913 10.7977 3.19665 9.20041 1.60738" fill="white"/>
</svg>
