<svg width="91" height="95" viewBox="0 0 91 95" fill="none" xmlns="http://www.w3.org/2000/svg">
<path d="M33.1578 83.0747C26.1059 88.6281 10.7716 93.0065 5.62964 93.7778C7.09877 89.9213 13.6792 79.8945 12.2407 70.6389L12.1641 70.3396C5.35223 63.0077 1.22223 53.3957 1.22223 42.8722C1.22223 19.8696 20.9549 1.22223 45.2963 1.22223C69.6377 1.22223 89.3704 19.8696 89.3704 42.8722C89.3704 65.8749 69.6377 84.5222 45.2963 84.5222M33.1578 83.0747C37.0263 84.0186 41.0959 84.5222 45.2963 84.5222M33.1578 83.0747L33.31 82.9635C37.121 83.9789 41.1415 84.5222 45.2963 84.5222" stroke="#F5F5F5" stroke-width="1.5" stroke-linecap="round" stroke-linejoin="round"/>
</svg>
