<svg width="30" height="30" viewBox="0 0 30 30" fill="none" xmlns="http://www.w3.org/2000/svg">
<path d="M17.3457 7.47067V19.8821M17.3457 7.47067L5.61729 7.47037C2.61482 7.47037 1.62964 10.0664 1.62964 11.1208C1.62964 11.932 1.62964 13.2624 1.62964 15.9881C1.62964 18.6651 4.44445 19.801 5.61729 19.8821H6.55556M17.3457 7.47067L23.2099 2.60309C24.3827 1.62969 25.321 1.62945 25.5556 1.62963C25.7901 1.62981 26.7284 1.62993 27.6667 2.60326C27.7051 2.6431 28.3704 3.33318 28.3704 4.30664V22.3161C28.3704 23.2895 27.7051 23.9796 27.6667 24.0194C26.7284 24.9928 25.7901 24.9929 25.5556 24.9931C25.321 24.9933 24.3827 24.993 23.2099 24.0196L17.3457 19.8821M17.3457 19.8821H13.8272M13.8272 19.8821C14.1399 20.7745 14.7654 25.9661 14.7654 26.4528C14.7654 29.1298 10.0741 28.8864 9.13581 26.4528C8.19754 24.0191 7.0247 21.5857 6.55556 19.8821M13.8272 19.8821H6.55556" stroke="#F5F5F5" stroke-width="1.5"/>
</svg>
